<svg width="16" height="12" viewBox="0 0 16 12" fill="none" xmlns="http://www.w3.org/2000/svg">
<path d="M15.6 1.82143C15.4 1.07143 14.9 0.535714 14.2 0.321429C13 1.91586e-07 7.89999 0 7.89999 0C7.89999 0 2.90001 1.91586e-07 1.60001 0.321429C0.900006 0.535714 0.399997 1.07143 0.199997 1.82143C-3.05474e-06 3.21429 0 6 0 6C0 6 3.03984e-06 8.78571 0.300003 10.1786C0.500003 10.9286 0.999997 11.4643 1.7 11.6786C2.9 12 8 12 8 12C8 12 13 12 14.3 11.6786C15 11.4643 15.5 10.9286 15.7 10.1786C16 8.78571 16 6 16 6C16 6 16 3.21429 15.6 1.82143ZM6.39999 8.57143V3.42857L10.6 6L6.39999 8.57143Z" fill="white"/>
</svg>
