<svg xmlns="http://www.w3.org/2000/svg" xmlns:xlink="http://www.w3.org/1999/xlink"><symbol id="energy" viewBox="0 0 11 16"><g fill="none">
<path d="M4.20796 9.31953L1.21425 9.31953C1.04122 9.31953 0.939807 9.11925 1.03903 8.97349L6.40295 1.09422C6.52286 0.918069 6.79204 1.00532 6.79204 1.22034V6.68047L9.78575 6.68047C9.95878 6.68047 10.0602 6.88075 9.96097 7.02651L4.59705 14.9058C4.47714 15.0819 4.20796 14.9947 4.20796 14.7797V9.31953Z" stroke="#01170A" stroke-linecap="square" stroke-linejoin="round"/>
</g></symbol><symbol id="heart" viewBox="0 0 16 14"><g fill="none">
<path d="M2.07392 2.07675C1.3863 2.76618 1 3.70125 1 4.67626C1 5.65126 1.3863 6.58633 2.07392 7.27576L5.76166 10.9732C5.76699 10.9786 5.77233 10.984 5.77769 10.9894L7.6296 12.8462C7.83415 13.0513 8.1658 13.0513 8.37036 12.8462L13.9261 7.27581C14.6137 6.58638 15 5.65131 15 4.6763C15 3.7013 14.6137 2.76623 13.9261 2.0768C13.2385 1.38736 12.3059 1.00005 11.3334 1.00005C10.361 1.00005 9.42836 1.38737 8.74074 2.0768L8.00002 2.81947L7.25926 2.07675C6.57164 1.38732 5.63903 1 4.66659 1C3.69415 1 2.76154 1.38732 2.07392 2.07675Z" stroke="#01170A" stroke-linecap="round" stroke-linejoin="round"/>
</g></symbol><symbol id="timer" viewBox="0 0 15 16"><g fill="none">
<path d="M1.95258 4.70296C1.80899 4.95449 1.68187 5.2176 1.5727 5.49075L1.49478 5.6857C0.835072 7.3363 0.835073 9.19091 1.49478 10.8415C2.15449 12.4921 3.41988 13.8035 5.01256 14.4872C6.60524 15.1709 8.39476 15.1709 9.98744 14.4872C11.5801 13.8035 12.8455 12.4921 13.5052 10.8415C14.1649 9.19091 14.1649 7.3363 13.5052 5.6857C12.8455 4.03509 11.5801 2.72369 9.98744 2.03999C9.70841 1.9202 9.42333 1.82141 9.13432 1.74359M7.25546 1.04273C7.12274 1.09971 7.01729 1.20899 6.96231 1.34654C6.90734 1.48409 6.90734 1.63864 6.96231 1.77619C7.01729 1.91374 7.12274 2.02303 7.25546 2.08C7.38819 2.13698 7.53731 2.13698 7.67003 2.08M7.25546 1.04273C7.38819 0.985756 7.53731 0.985756 7.67003 1.04273C7.80276 1.09971 7.90821 1.20899 7.96318 1.34654C8.01816 1.48409 8.01816 1.63864 7.96318 1.77619C7.90821 1.91374 7.80276 2.02303 7.67003 2.08M7.25546 1.04273L7.67003 2.08M2.52492 3.12161L7.71383 7.6719C7.84102 7.78344 7.91438 7.94736 7.91438 8.12003C7.91438 8.26459 7.86397 8.39693 7.78037 8.49923M2.52492 3.12161L6.91554 8.49923C7.02316 8.63105 7.18133 8.70707 7.34794 8.70707C7.5213 8.70707 7.67647 8.62636 7.78037 8.49923M2.52492 3.12161L7.78037 8.49923" stroke="#01170A" stroke-linecap="round" stroke-linejoin="round"/>
</g></symbol><symbol id="info" viewBox="0 0 18 18"><g fill="none">
<path d="M8.99079 4.42857V11.0571M8.99079 12.8857V13.3429M17 9C17 13.4183 13.4183 17 9 17C4.58172 17 1 13.4183 1 9C1 4.58172 4.58172 1 9 1C13.4183 1 17 4.58172 17 9Z" stroke="#01170A" stroke-linecap="round" stroke-linejoin="round"/>
</g></symbol><symbol id="logo" viewBox="0 0 90 20"><g fill="none">
<path d="M33.2735 17L32.5778 14.948H28.154L27.4584 17H23.7838L28.6892 4.4H32.0427L37.0551 17H33.2735ZM31.7394 12.23L30.3659 8.324L28.9924 12.23H31.7394Z" fill="#31B768"/>
<path d="M37.7533 17V3.77H41.0711V17H37.7533Z" fill="#31B768"/>
<path d="M42.7967 17V3.77H46.1145V17H42.7967Z" fill="#31B768"/>
<path d="M55.8861 7.532H51.4088V9.548H55.4224V12.59H51.4088V17H47.9483V4.4H55.8861V7.532Z" fill="#31B768"/>
<path d="M61.8285 17.324C60.2588 17.324 58.9626 16.838 57.9399 15.866C56.929 14.882 56.4236 13.64 56.4236 12.14C56.4236 10.628 56.929 9.386 57.9399 8.414C58.9626 7.442 60.2588 6.956 61.8285 6.956C63.3982 6.956 64.6885 7.448 65.6993 8.432C66.722 9.404 67.2334 10.64 67.2334 12.14C67.2334 13.64 66.722 14.882 65.6993 15.866C64.6766 16.838 63.3863 17.324 61.8285 17.324ZM60.3301 13.706C60.7226 14.114 61.222 14.318 61.8285 14.318C62.435 14.318 62.9285 14.114 63.309 13.706C63.7015 13.298 63.8977 12.776 63.8977 12.14C63.8977 11.504 63.7015 10.982 63.309 10.574C62.9285 10.166 62.435 9.962 61.8285 9.962C61.4242 9.962 61.0615 10.058 60.7404 10.25C60.4312 10.43 60.1874 10.688 60.009 11.024C59.8307 11.348 59.7415 11.72 59.7415 12.14C59.7415 12.776 59.9377 13.298 60.3301 13.706Z" fill="#31B768"/>
<path d="M73.2475 17.324C71.6778 17.324 70.3816 16.838 69.3588 15.866C68.348 14.882 67.8426 13.64 67.8426 12.14C67.8426 10.628 68.348 9.386 69.3588 8.414C70.3816 7.442 71.6778 6.956 73.2475 6.956C74.8172 6.956 76.1075 7.448 77.1183 8.432C78.141 9.404 78.6524 10.64 78.6524 12.14C78.6524 13.64 78.141 14.882 77.1183 15.866C76.0956 16.838 74.8053 17.324 73.2475 17.324ZM71.7491 13.706C72.1415 14.114 72.641 14.318 73.2475 14.318C73.854 14.318 74.3475 14.114 74.728 13.706C75.1205 13.298 75.3167 12.776 75.3167 12.14C75.3167 11.504 75.1205 10.982 74.728 10.574C74.3475 10.166 73.854 9.962 73.2475 9.962C72.8432 9.962 72.4805 10.058 72.1594 10.25C71.8502 10.43 71.6064 10.688 71.428 11.024C71.2497 11.348 71.1605 11.72 71.1605 12.14C71.1605 12.776 71.3567 13.298 71.7491 13.706Z" fill="#31B768"/>
<path d="M86.7178 3.77H90V17H87.5384L87.2351 16.28C86.4027 16.976 85.4335 17.324 84.3276 17.324C82.853 17.324 81.64 16.838 80.6887 15.866C79.7373 14.894 79.2616 13.652 79.2616 12.14C79.2616 10.628 79.7373 9.386 80.6887 8.414C81.64 7.442 82.853 6.956 84.3276 6.956C85.2076 6.956 86.0043 7.184 86.7178 7.64V3.77ZM83.2216 13.742C83.6378 14.162 84.1551 14.372 84.7735 14.372C85.3919 14.372 85.9032 14.162 86.3076 13.742C86.7238 13.31 86.9319 12.776 86.9319 12.14C86.9319 11.828 86.8724 11.534 86.7535 11.258C86.6465 10.982 86.4978 10.748 86.3076 10.556C86.1173 10.352 85.8854 10.196 85.6119 10.088C85.3503 9.968 85.0708 9.908 84.7735 9.908C84.1551 9.908 83.6378 10.124 83.2216 10.556C82.8173 10.976 82.6151 11.504 82.6151 12.14C82.6151 12.776 82.8173 13.31 83.2216 13.742Z" fill="#31B768"/>
<path d="M15.676 0.00599351C11.5996 -0.244902 9.67439 7.46469 9.67439 7.46469C9.67439 7.46469 8.62398 1.71157 4.84326 1.78174C2.59728 1.82355 -0.913072 3.70383 0.219359 9.53285C0.948441 13.2868 3.51291 15.963 5.80907 17.6706C5.89212 16.7936 6.14956 15.5566 6.03779 14.6774C5.92188 14.1326 5.59097 13.878 5.23937 13.5074C4.81584 13.0609 4.49088 12.4786 4.49088 11.7815C4.49088 11.7167 4.50356 11.5466 4.50356 11.5466L5.01143 7.02562H5.42927L5.28231 11.8018C5.27843 11.9444 5.38166 12.0624 5.51051 12.0624H5.58631C5.71231 12.0624 5.81451 11.9496 5.81451 11.8101L5.81554 7.02762L6.25873 7.02704V11.8101C6.25873 11.9493 6.36093 12.0624 6.48693 12.0624C6.61292 12.0624 6.71512 11.9493 6.71512 11.8101V7.02762L7.11692 7.02647V11.776C7.11692 11.9155 7.21886 12.0283 7.3446 12.0289H7.43178C7.56063 12.0292 7.66412 11.9115 7.6605 11.7691L7.53139 7.02704L7.98959 7.02762L8.48608 11.7932C8.48608 11.7932 8.48737 11.8952 8.48505 11.9355C8.44934 12.5771 8.15491 13.0508 7.76631 13.4973C7.44317 13.8685 7.08277 14.2497 6.93219 14.7492C6.84396 15.64 7.10683 16.8661 7.17358 17.723C7.19272 17.9696 7.2098 18.2807 7.22481 18.635C8.706 19.5563 9.82549 20 9.82549 20C9.82549 20 11.0715 19.5853 12.7002 18.4585C12.7131 18.2758 12.7268 18.0977 12.7416 17.927C12.8399 16.8128 13.2567 15.0557 12.7597 14.2855C11.8534 13.9819 10.8133 12.6161 10.8138 10.7017C10.8138 8.80337 11.7421 7.05683 13.3899 7.02704V7.0259C13.3979 7.0259 13.4254 7.0259 13.4331 7.0259V7.02704C15.0812 7.05683 16.0097 8.80337 16.0097 10.7017C16.0092 12.6161 14.9707 13.9822 14.0636 14.2855C13.6354 14.9494 13.8942 16.3451 14.0295 17.4323C15.41 16.248 16.8879 14.5831 18.0542 12.2907C21.3379 5.83472 19.7524 0.256602 15.676 0.00599351Z" fill="#31B768"/>
<path d="M11.8837 9.26505C11.8883 9.12987 11.8987 9.04825 11.8987 9.04825C11.8987 9.04825 11.8511 9.10896 11.7929 9.23699C11.7334 9.36301 11.6614 9.54745 11.5983 9.77715C11.5341 10.0051 11.4767 10.2792 11.4464 10.5794C11.4141 10.8801 11.4045 11.2066 11.4617 11.5483C11.4927 11.7259 11.5385 11.876 11.5942 12.0321C11.6521 12.181 11.7147 12.3219 11.7804 12.4545C11.9173 12.7174 12.0617 12.9463 12.2014 13.1307C12.339 13.3155 12.4702 13.4561 12.5732 13.5437C12.6738 13.6348 12.7517 13.654 12.7507 13.6477C12.747 13.6529 12.6945 13.6013 12.6368 13.4813C12.5765 13.3644 12.4989 13.1906 12.4115 12.9827C12.3256 12.773 12.2254 12.5298 12.1328 12.2678C12.0839 12.1378 12.0389 12.0023 12.0014 11.8651C11.9613 11.7336 11.9199 11.587 11.9054 11.4578C11.828 10.9053 11.8625 10.2838 11.8671 9.82642C11.8736 9.59443 11.8798 9.40024 11.8837 9.26505Z" fill="#31B768"/>
</g></symbol><symbol id="user" viewBox="0 0 16 18"><g fill="none">
<path d="M13.8333 17H2.16667C1.52234 17 1 16.5095 1 15.9044C1 14.0922 2.19724 12.4701 4.00426 11.8341L4.36303 11.7078C6.70803 10.8825 9.29197 10.8825 11.637 11.7078L11.9957 11.8341C13.8028 12.4701 15 14.0922 15 15.9044C15 16.5095 14.4777 17 13.8333 17Z" stroke="#01170A" stroke-linecap="square" stroke-linejoin="round"/>
<path d="M6.22126 8.47276C7.33774 9.01134 8.66226 9.01134 9.77874 8.47276C10.8178 7.97152 11.5623 7.05858 11.8067 5.98588L11.8719 5.69958C12.1219 4.60262 11.8549 3.45773 11.1396 2.55928L11.0349 2.42771C10.3195 1.52912 9.19473 1 8 1C6.80527 1 5.68051 1.52913 4.96512 2.42771L4.86038 2.55928C4.14509 3.45773 3.8781 4.60262 4.12805 5.69958L4.19329 5.98588C4.43771 7.05858 5.18218 7.97152 6.22126 8.47276Z" stroke="#01170A" stroke-linecap="square" stroke-linejoin="round"/>
</g></symbol><symbol id="search" viewBox="0 0 16 16"><g fill="none">
<path d="M15 15L11.7709 11.75M2.84041 11.7956C1.25315 10.1981 0.633257 7.86957 1.21423 5.68726C1.79521 3.50495 3.48879 1.80037 5.65703 1.21562C7.82526 0.630876 10.1387 1.25479 11.726 2.85236C13.3133 4.44992 13.9331 6.77842 13.3522 8.96073C12.7712 11.143 11.0776 12.8476 8.90938 13.4324C6.74114 14.0171 4.42767 13.3932 2.84041 11.7956Z" stroke="#01170A" stroke-linecap="round" stroke-linejoin="round"/>
</g></symbol><symbol id="facebook" viewBox="0 0 16 16"><g fill="none">
<path d="M16 8C16 3.6 12.4 0 8 0C3.6 0 0 3.6 0 8C0 12 2.9 15.3 6.7 15.9V10.3H4.7V8H6.7V6.2C6.7 4.2 7.9 3.1 9.7 3.1C10.6 3.1 11.5 3.3 11.5 3.3V5.3H10.5C9.5 5.3 9.2 5.9 9.2 6.5V8H11.4L11 10.3H9.1V16C13.1 15.4 16 12 16 8Z" fill="white"/>
</g></symbol><symbol id="instagram" viewBox="0 0 16 16"><g fill="none">
<path d="M8 1.44578C10.1205 1.44578 10.4096 1.44578 11.2771 1.44578C12.0482 1.44578 12.4337 1.63855 12.7229 1.73494C13.1084 1.92771 13.3976 2.0241 13.6867 2.31325C13.9759 2.60241 14.1687 2.89157 14.2651 3.27711C14.3614 3.56627 14.4578 3.95181 14.5542 4.72289C14.5542 5.59036 14.5542 5.78313 14.5542 8C14.5542 10.2169 14.5542 10.4096 14.5542 11.2771C14.5542 12.0482 14.3614 12.4337 14.2651 12.7229C14.0723 13.1084 13.9759 13.3976 13.6867 13.6867C13.3976 13.9759 13.1084 14.1687 12.7229 14.2651C12.4337 14.3614 12.0482 14.4578 11.2771 14.5542C10.4096 14.5542 10.2169 14.5542 8 14.5542C5.78313 14.5542 5.59036 14.5542 4.72289 14.5542C3.95181 14.5542 3.56627 14.3614 3.27711 14.2651C2.89157 14.0723 2.60241 13.9759 2.31325 13.6867C2.0241 13.3976 1.83133 13.1084 1.73494 12.7229C1.63855 12.4337 1.54217 12.0482 1.44578 11.2771C1.44578 10.4096 1.44578 10.2169 1.44578 8C1.44578 5.78313 1.44578 5.59036 1.44578 4.72289C1.44578 3.95181 1.63855 3.56627 1.73494 3.27711C1.92771 2.89157 2.0241 2.60241 2.31325 2.31325C2.60241 2.0241 2.89157 1.83133 3.27711 1.73494C3.56627 1.63855 3.95181 1.54217 4.72289 1.44578C5.59036 1.44578 5.87952 1.44578 8 1.44578ZM8 0C5.78313 0 5.59036 0 4.72289 0C3.85542 0 3.27711 0.192772 2.79518 0.385543C2.31325 0.578314 1.83133 0.867471 1.3494 1.3494C0.867471 1.83133 0.674699 2.21687 0.385543 2.79518C0.192772 3.27711 0.0963856 3.85542 0 4.72289C0 5.59036 0 5.87952 0 8C0 10.2169 0 10.4096 0 11.2771C0 12.1446 0.192772 12.7229 0.385543 13.2048C0.578314 13.6867 0.867471 14.1687 1.3494 14.6506C1.83133 15.1325 2.21687 15.3253 2.79518 15.6145C3.27711 15.8072 3.85542 15.9036 4.72289 16C5.59036 16 5.87952 16 8 16C10.1205 16 10.4096 16 11.2771 16C12.1446 16 12.7229 15.8072 13.2048 15.6145C13.6867 15.4217 14.1687 15.1325 14.6506 14.6506C15.1325 14.1687 15.3253 13.7831 15.6145 13.2048C15.8072 12.7229 15.9036 12.1446 16 11.2771C16 10.4096 16 10.1205 16 8C16 5.87952 16 5.59036 16 4.72289C16 3.85542 15.8072 3.27711 15.6145 2.79518C15.4217 2.31325 15.1325 1.83133 14.6506 1.3494C14.1687 0.867471 13.7831 0.674699 13.2048 0.385543C12.7229 0.192772 12.1446 0.0963856 11.2771 0C10.4096 0 10.2169 0 8 0Z" fill="white"/>
<path d="M8 3.85542C5.68675 3.85542 3.85542 5.68675 3.85542 8C3.85542 10.3133 5.68675 12.1446 8 12.1446C10.3133 12.1446 12.1446 10.3133 12.1446 8C12.1446 5.68675 10.3133 3.85542 8 3.85542ZM8 10.6988C6.55422 10.6988 5.30121 9.54217 5.30121 8C5.30121 6.55422 6.45783 5.30121 8 5.30121C9.44578 5.30121 10.6988 6.45783 10.6988 8C10.6988 9.44578 9.44578 10.6988 8 10.6988Z" fill="white"/>
<path d="M12.241 4.72289C12.7733 4.72289 13.2048 4.29136 13.2048 3.75904C13.2048 3.22671 12.7733 2.79518 12.241 2.79518C11.7086 2.79518 11.2771 3.22671 11.2771 3.75904C11.2771 4.29136 11.7086 4.72289 12.241 4.72289Z" fill="white"/>
</g></symbol><symbol id="pinterest" viewBox="0 0 16 16"><g fill="none">
<path d="M8.04929 0C3.62218 0 0 3.69231 0 8.20513C0 11.5897 2.01233 14.4615 4.82958 15.6923C4.82958 15.0769 4.82957 14.4615 4.93018 13.8462C5.13141 13.1282 5.93634 9.33333 5.93634 9.33333C5.93634 9.33333 5.63451 8.82051 5.63451 8C5.63451 6.76923 6.33882 5.84615 7.14375 5.84615C7.84806 5.84615 8.25052 6.35897 8.25052 7.07692C8.25052 7.79487 7.74744 8.92308 7.54621 9.94872C7.34498 10.7692 7.94867 11.4872 8.85422 11.4872C10.3635 11.4872 11.3696 9.53846 11.3696 7.07692C11.3696 5.23077 10.1622 3.89744 8.04929 3.89744C5.6345 3.89744 4.12527 5.74359 4.12527 7.79487C4.12527 8.51282 4.3265 9.02564 4.62835 9.4359C4.72896 9.64103 4.82957 9.64103 4.72895 9.84615C4.72895 9.94872 4.62834 10.359 4.52772 10.4615C4.42711 10.6667 4.3265 10.7692 4.12527 10.6667C3.01849 10.1538 2.5154 8.92308 2.5154 7.48718C2.5154 5.1282 4.4271 2.35897 8.25052 2.35897C11.3696 2.35897 13.3819 4.61538 13.3819 7.07692C13.3819 10.2564 11.6715 12.7179 9.05545 12.7179C8.1499 12.7179 7.34498 12.2051 7.04313 11.6923C7.04313 11.6923 6.54004 13.5385 6.43942 13.9487C6.23819 14.5641 5.93636 15.1795 5.63451 15.6923C6.33882 15.8974 7.14374 16 7.94867 16C12.3758 16 15.998 12.3077 15.998 7.79487C16.0986 3.69231 12.4764 0 8.04929 0Z" fill="white"/>
</g></symbol><symbol id="youtube" viewBox="0 0 16 12"><g fill="none">
<path d="M15.6 1.82143C15.4 1.07143 14.9 0.535714 14.2 0.321429C13 1.91586e-07 7.89999 0 7.89999 0C7.89999 0 2.90001 1.91586e-07 1.60001 0.321429C0.900006 0.535714 0.399997 1.07143 0.199997 1.82143C-3.05474e-06 3.21429 0 6 0 6C0 6 3.03984e-06 8.78571 0.300003 10.1786C0.500003 10.9286 0.999997 11.4643 1.7 11.6786C2.9 12 8 12 8 12C8 12 13 12 14.3 11.6786C15 11.4643 15.5 10.9286 15.7 10.1786C16 8.78571 16 6 16 6C16 6 16 3.21429 15.6 1.82143ZM6.39999 8.57143V3.42857L10.6 6L6.39999 8.57143Z" fill="white"/>
</g></symbol></svg>